<?xml version="1.0" standalone="no"?><!DOCTYPE svg PUBLIC "-//W3C//DTD SVG 1.1//EN" "http://www.w3.org/Graphics/SVG/1.1/DTD/svg11.dtd"><svg t="1731836661159" class="icon" viewBox="0 0 1024 1024" version="1.1" xmlns="http://www.w3.org/2000/svg" p-id="6801" xmlns:xlink="http://www.w3.org/1999/xlink" width="200" height="200"><path d="M512 97.52381c228.912762 0 414.47619 185.563429 414.47619 414.47619s-185.563429 414.47619-414.47619 414.47619S97.52381 740.912762 97.52381 512 283.087238 97.52381 512 97.52381z m0 73.142857C323.486476 170.666667 170.666667 323.486476 170.666667 512s152.81981 341.333333 341.333333 341.333333 341.333333-152.81981 341.333333-341.333333S700.513524 170.666667 512 170.666667z m99.425524 157.086476l132.705524 132.754286-51.736381 51.712-70.680381-70.704762v277.382095h-73.142857V353.767619l0.926476-6.582857c1.316571-8.240762 2.633143-9.99619 9.874285-19.456l8.192-4.486095c18.18819-9.679238 20.894476-8.192 43.861334 4.510476zM475.940571 316.952381v365.129143l-0.950857 6.582857c-1.29219 8.240762-2.608762 9.97181-9.849904 19.456l-8.192 4.461714c-18.212571 9.703619-20.894476 8.216381-43.885715-4.486095L280.380952 575.341714l51.736381-51.712 70.680381 70.704762V316.952381h73.142857z" p-id="6802"></path></svg>